<svg width="310" height="308" viewBox="0 0 310 308" fill="none" xmlns="http://www.w3.org/2000/svg">
<path d="M160.727 265.013C221.829 265.013 271.486 211.978 271.486 146.722C271.486 81.4672 221.829 28.4315 160.727 28.4315C99.4006 28.4315 49.9702 81.2244 49.9702 146.722C49.9702 211.978 99.4006 265.013 160.727 265.013Z" fill="#EAEEF9"/>
<path d="M91.0365 114.387H224.921C229.934 114.387 234.447 118.939 234.447 124.564V214.803C234.447 220.157 230.185 224.977 224.921 224.977H91.0365C86.0237 224.977 81.5107 220.425 81.5107 214.803V124.564C81.5107 118.939 86.0237 114.387 91.0365 114.387Z" fill="url(#paint0_linear_28_3)"/>
<path d="M289.563 117.151C292.996 113.729 293.226 108.107 290.022 104.44C286.818 100.776 281.554 100.531 278.121 103.952C274.69 107.374 274.46 112.996 277.664 116.66C280.638 120.082 286.131 120.573 289.563 117.151Z" fill="#EAEEF9"/>
<path d="M290.02 76.8236C291.393 75.3573 291.623 72.9141 290.25 71.4472C288.876 69.9802 286.589 69.7348 285.216 71.2018C283.842 72.6688 283.612 75.112 284.986 76.5783C286.359 78.2906 288.649 78.2906 290.02 76.8236Z" fill="#EAEEF9"/>
<path d="M200.089 21.3454C201.003 20.3667 201.233 18.6571 200.317 17.6784C199.403 16.6996 197.799 16.4569 196.885 17.4331C195.969 18.4118 195.742 20.1214 196.656 21.1001C197.572 22.0763 199.173 22.3216 200.089 21.3454Z" fill="#EAEEF9"/>
<g filter="url(#filter0_d_28_3)">
<path d="M283.086 66.7228L249.741 130.185C248.486 132.327 245.981 133.132 244.224 131.792L187.062 96.178C185.054 94.8405 184.304 92.1624 185.556 90.288L229.431 9.42119C230.686 7.27912 233.194 6.47496 234.949 7.8128L276.316 33.52L283.086 66.7228Z" fill="#F2F6FA"/>
</g>
<path d="M276.317 33.5199L266.791 50.6563C265.536 53.3345 266.289 56.0127 268.545 57.6186L282.836 66.4547" fill="#D5DAE6"/>
<path d="M236.955 50.1226C237.957 49.8545 238.961 49.8547 239.714 49.8547C240.715 49.8547 241.72 49.8547 242.721 49.8547C243.725 50.1227 244.978 50.3882 245.982 50.6562C247.234 51.1924 248.238 51.7286 249.24 52.2648C250.744 53.0664 251.999 54.1387 253 55.4765C254.004 56.5488 254.757 57.8867 255.257 59.4926C255.759 60.8329 255.759 62.4389 255.759 63.7768C255.508 65.3853 255.006 66.9909 254.255 68.329C253.502 69.669 252.749 70.739 251.747 71.8109C250.744 72.6153 249.993 73.149 248.738 73.6853C247.737 74.2216 246.732 74.4897 245.73 74.4897L242.972 74.7578C242.219 74.7578 241.469 75.0234 240.464 75.2909C239.714 75.559 239.212 75.8271 238.71 76.3634L235.951 80.1115L231.44 77.4334L233.446 72.6153C233.695 71.8115 234.447 71.0071 234.949 70.4734C235.703 69.9372 236.453 69.669 237.206 69.4015C238.208 69.1334 238.961 69.1327 239.965 68.8653C240.966 68.8653 241.971 68.5971 242.972 68.329C243.976 68.0634 244.727 67.7953 245.73 67.259C246.732 66.7227 247.234 65.9209 247.737 64.8489C247.988 64.3128 248.238 63.5111 248.487 62.7069C248.487 61.9026 248.487 61.3692 248.238 60.833C247.988 60.0288 247.737 59.4926 247.234 58.959C246.732 58.4228 246.233 57.8867 245.479 57.3506C244.727 56.817 243.725 56.2808 242.721 56.0127C241.971 55.7447 241.217 55.7446 240.464 55.7446C239.714 55.7446 239.212 55.7446 238.71 55.7446C238.459 55.7446 237.957 55.7446 237.708 55.4765C237.206 55.2084 236.704 54.4067 236.704 53.8705L236.955 50.1226ZM224.168 85.4678C224.419 84.9316 224.922 84.3953 225.421 83.8616C225.923 83.5941 226.425 83.0578 226.927 83.0578C228.18 82.7897 229.435 82.7897 230.436 83.5941C230.939 83.8622 231.44 84.3953 231.94 84.9316C232.191 85.4678 232.442 86.0041 232.693 86.5378C233.446 89.2159 231.94 91.626 229.435 92.4304C228.18 92.6979 226.927 92.4304 225.923 91.8941C225.421 91.626 224.922 91.0897 224.419 90.556C224.168 90.0204 223.666 89.4841 223.666 88.9478C223.415 88.4141 223.415 87.6097 223.666 87.0734C223.666 86.5378 223.917 86.0041 224.168 85.4678Z" fill="#CED6E2"/>
<g filter="url(#filter1_d_28_3)">
<path d="M68.7241 39.1443L106.833 81.7198C108.086 83.3261 108.086 85.4679 106.582 86.806L67.7205 126.169C66.2165 127.507 64.2111 127.507 62.9558 125.901L14.3165 71.0072C13.0638 69.401 13.0638 67.2591 14.5675 65.921L42.8996 37.5359L68.7241 39.1443Z" fill="#F2F6FA"/>
</g>
<path d="M42.6479 36.9999L53.1782 48.7824C54.6818 50.3883 57.1894 50.3883 58.6954 48.7824L68.4724 38.8764" fill="#D5DAE6"/>
<path d="M45.6577 73.6853C45.6577 72.8835 45.9087 72.079 46.1573 71.2753C46.4083 70.4734 46.6593 69.669 46.9103 68.8652C47.1613 68.0634 47.6633 67.259 48.163 66.4546C48.665 65.6534 49.418 64.849 50.1686 64.0473C51.1725 62.975 52.1766 62.1708 53.4292 61.6372C54.4308 61.101 55.6858 60.833 56.6875 60.833C57.6915 60.833 58.944 61.101 59.948 61.3691C60.9498 61.9027 61.9534 62.7069 62.9552 63.5111C63.7084 64.3128 64.4616 65.3853 64.7121 66.4546C64.9607 67.259 65.2118 68.3316 65.4628 69.4015C65.4628 70.2053 65.4628 71.2753 65.4628 72.079C65.2118 72.8835 65.2118 73.6853 64.9607 74.4897C64.9607 75.2935 64.7121 75.8271 64.7121 76.6316C64.7121 77.1678 64.7121 77.7015 65.2118 78.2371L67.2178 81.4516L64.2106 84.3979L61.2009 81.4516C60.701 80.9153 60.199 80.3797 59.948 79.5779C59.697 78.7734 59.6971 78.2378 59.6971 77.436C59.6971 76.6316 59.948 75.8271 59.948 75.026C60.199 74.2215 60.199 73.4171 60.199 72.6153C60.199 71.8115 60.199 71.0071 59.948 70.2053C59.697 69.4009 59.195 68.5997 58.6931 67.7953C58.4444 67.259 57.9425 66.9909 57.4405 66.7227C56.9385 66.4546 56.4388 66.4546 55.9368 66.4546C55.4348 66.4546 54.9328 66.7227 54.4308 66.9909C53.9312 67.259 53.4292 67.5272 52.9272 68.0634C52.4252 68.5991 51.9256 69.4009 51.4236 69.9372C51.1726 70.4734 50.9215 71.0071 50.6705 71.8109C50.4195 72.3472 50.4196 72.8834 50.4196 73.149C50.4196 73.4171 50.1709 73.6853 49.9199 73.9534C49.6689 74.4897 48.916 74.4897 48.414 74.2215L45.6577 73.6853ZM68.7236 92.4304C68.4725 92.1622 68.2215 91.626 67.9704 91.0923C67.7193 90.556 67.7193 90.0197 67.7193 89.4841C67.7193 88.4141 68.2215 87.3416 68.9747 86.5404C69.2233 86.2723 69.7254 86.0041 70.2269 85.736C70.729 85.4678 71.2312 85.4678 71.7309 85.4678C73.2366 85.4678 74.7406 86.5404 75.2427 88.146C75.4913 88.6823 75.4913 89.2159 75.4913 89.7522C75.4913 90.2878 75.2427 90.8241 75.2427 91.3578C74.9916 91.8941 74.7406 92.1622 74.2384 92.6985C73.9874 92.966 73.4852 93.4997 72.9856 93.4997C71.9819 93.7678 70.9801 93.7678 70.2269 93.4997C69.4743 93.2341 68.9747 92.966 68.7236 92.4304Z" fill="#CED6E2"/>
<g filter="url(#filter2_d_28_3)">
<path d="M168.259 106.087L153.467 162.587C152.965 164.461 150.959 165.799 149.205 164.997L97.807 148.931C96.052 148.394 94.7973 146.252 95.5499 144.378L115.606 71.5435C116.108 69.6691 118.114 68.3316 119.869 69.1335L157.227 80.916L168.259 106.087Z" fill="#F2F6FA"/>
</g>
<path d="M157.232 81.0143L152.463 96.9824C151.962 99.1242 153.216 101.535 155.222 102.07L168.445 106.061" fill="#D5DAE6"/>
<path d="M128.895 102.604C129.648 102.339 130.401 102.07 131.152 101.802C131.904 101.534 132.655 101.267 133.659 101.267C134.663 101.267 135.413 101.267 136.418 101.267C137.42 101.267 138.423 101.534 139.425 101.802C140.68 102.07 141.933 102.872 142.936 103.677C143.938 104.481 144.691 105.282 145.442 106.355C145.943 107.425 146.446 108.497 146.697 109.567C146.948 110.907 146.697 112.245 146.446 113.317C146.195 114.387 145.693 115.459 144.942 116.529C144.44 117.333 143.687 118.137 142.936 118.671C142.184 119.207 141.43 119.743 140.68 120.011L138.423 120.813C137.921 121.081 137.168 121.349 136.669 121.617C136.167 121.885 135.665 122.421 135.665 122.955L134.161 126.437L130.15 124.564L130.9 120.279C130.9 119.475 131.403 118.939 131.904 118.403C132.406 117.869 132.906 117.333 133.659 117.065C134.412 116.797 135.162 116.529 135.665 116.261C136.418 115.993 137.168 115.727 137.921 115.191C138.674 114.923 139.174 114.387 139.927 113.851C140.429 113.317 140.931 112.513 141.179 111.44C141.179 111.175 141.179 110.639 141.179 110.103C141.179 109.567 140.931 109.033 140.68 108.497C140.429 107.96 139.927 107.692 139.425 107.157C138.923 106.891 138.423 106.623 137.67 106.355C136.917 106.087 136.167 106.087 135.162 106.087C134.661 106.087 133.91 106.087 133.408 106.355C132.906 106.355 132.406 106.623 132.155 106.623C131.904 106.623 131.654 106.891 131.152 106.623C130.649 106.623 130.15 106.087 130.15 105.55L128.895 102.604ZM125.135 133.4C125.386 132.864 125.386 132.327 125.888 132.059C126.138 131.526 126.638 131.257 126.889 130.99C127.893 130.454 128.895 130.454 129.648 130.722C130.15 130.99 130.649 131.257 130.9 131.526C131.152 131.791 131.654 132.327 131.904 132.595C132.906 134.469 132.155 136.88 130.401 137.684C129.397 138.22 128.393 138.22 127.642 137.952C127.14 137.684 126.638 137.684 126.387 137.148C125.888 136.88 125.637 136.344 125.386 136.078C125.135 135.542 125.135 135.274 124.883 134.737C125.135 134.469 125.135 133.936 125.135 133.4Z" fill="#CED6E2"/>
<g filter="url(#filter3_d_28_3)">
<path d="M289.104 202.752L240.465 230.867C238.961 231.671 236.704 231.135 235.951 229.261L211.633 178.653C210.88 177.045 211.382 174.635 213.136 173.833L276.317 138.217C277.823 137.416 280.08 137.952 280.83 139.826L298.382 176.509L289.104 202.752Z" fill="#F2F6FA"/>
</g>
<path d="M298.131 177.045L284.591 184.544C282.837 185.616 282.086 188.291 282.837 190.168L288.853 203.02" fill="#D5DAE6"/>
<path d="M264.533 170.083C265.287 170.351 265.786 170.887 266.539 171.155C267.292 171.423 267.792 171.959 268.545 172.761C269.298 173.565 269.797 174.101 270.299 174.903C271.052 175.707 271.555 176.511 272.054 177.581C272.807 178.654 273.058 180.259 273.058 181.329C273.309 182.669 273.058 183.739 273.058 185.079C272.807 186.149 272.305 187.222 271.803 188.291C271.052 189.364 270.048 190.168 269.047 190.702C268.294 191.238 267.041 191.506 266.037 191.774C265.287 192.042 264.031 192.042 263.279 191.774C262.528 191.506 261.524 191.506 260.773 190.969L258.767 189.9C258.266 189.632 257.513 189.364 257.011 189.096C256.511 188.828 255.758 188.828 255.507 189.364L252.249 190.702L250.494 186.686L253.752 184.276C254.254 183.739 255.005 183.739 255.758 183.739C256.511 183.739 257.011 183.739 257.764 184.007C258.516 184.276 259.016 184.811 259.518 185.079C260.271 185.348 260.774 185.881 261.775 186.149C262.528 186.417 263.03 186.417 264.031 186.686C264.784 186.686 265.535 186.418 266.539 185.881C267.292 185.348 268.294 184.544 268.294 183.206C268.545 182.669 268.294 182.134 268.294 181.329C268.043 180.796 268.043 180.259 267.541 179.455C267.292 178.654 266.79 178.118 266.288 177.313C266.037 177.045 265.535 176.511 265.035 176.243C264.784 175.975 264.282 175.707 264.031 175.439C263.781 175.171 263.53 175.171 263.279 174.635C263.03 174.369 263.03 173.565 263.279 173.297L264.533 170.083ZM241.217 188.559C241.719 188.291 241.969 188.024 242.72 188.291C243.222 188.024 243.724 188.291 243.975 188.291C244.977 188.559 245.73 189.364 245.981 190.168C246.232 190.702 246.232 191.238 246.232 191.774C246.232 192.042 246.232 192.844 246.232 193.112C245.981 193.916 245.228 194.986 244.475 195.254C243.975 195.522 243.473 195.522 242.971 195.522C242.72 195.522 241.969 195.522 241.718 195.522C240.715 195.254 239.964 194.452 239.713 193.648C239.462 193.112 239.462 192.576 239.462 192.042C239.211 191.506 239.462 190.97 239.462 190.702C239.713 190.168 239.964 189.9 239.964 189.364C240.213 189.096 240.966 189.096 241.217 188.559Z" fill="#CED6E2"/>
<path fill-rule="evenodd" clip-rule="evenodd" d="M79.7563 167.769C80.2615 167.769 80.6704 168.206 80.6704 168.745V216.943C80.6704 222.028 84.7727 226.411 89.5337 226.411H227.178C231.937 226.411 236.041 222.028 236.041 216.943V172.493C236.041 171.954 236.45 171.517 236.955 171.517C237.46 171.517 237.87 171.954 237.87 172.493V216.943C237.87 223.106 232.947 228.363 227.178 228.363H89.5337C83.7624 228.363 78.8423 223.106 78.8423 216.943V168.745C78.8423 168.206 79.2518 167.769 79.7563 167.769Z" fill="#1676EE"/>
<path d="M231.689 143.842H184.555C180.042 143.842 175.529 145.448 172.02 148.662L159.484 159.372C155.973 162.319 151.459 164.193 146.948 164.193H93.2936C88.0298 164.193 83.5168 168.745 83.5168 174.635C83.5168 175.171 83.5168 175.707 83.7678 176.243L93.5446 231.135C94.2978 236.223 98.5598 240.24 103.322 240.24H217.9C222.916 240.24 226.927 236.491 227.678 231.403L241.468 155.892C242.219 150.268 238.71 144.912 233.195 144.11C232.693 143.842 232.191 143.842 231.689 143.842Z" fill="white"/>
<g filter="url(#filter4_d_28_3)">
<path d="M244.727 133.934H188.567C183.301 133.934 177.786 136.078 173.775 139.558L158.731 152.678C154.469 156.429 149.205 158.302 143.939 158.302H79.5058C73.2377 158.302 67.7205 163.657 67.7205 170.887C67.7205 171.423 67.7205 172.225 67.9715 172.761L79.7562 239.438C80.758 245.596 85.5221 250.416 91.5391 250.416H228.18C233.946 250.416 238.961 245.864 239.965 239.706L256.261 148.394C257.263 141.7 253 135.006 246.484 133.934C245.982 133.934 245.229 133.934 244.727 133.934Z" fill="url(#paint1_linear_28_3)"/>
</g>
<path d="M136.418 204.09C139.676 204.09 142.435 201.146 142.435 197.664C142.435 194.184 139.676 191.238 136.418 191.238C133.157 191.238 130.398 194.184 130.398 197.664C130.398 201.146 133.157 204.09 136.418 204.09Z" fill="#989FB0"/>
<path d="M183.3 203.02C186.56 203.02 189.319 200.074 189.319 196.594C189.319 193.112 186.56 190.168 183.3 190.168C180.042 190.168 177.283 193.112 177.283 196.594C177.283 200.074 180.042 203.02 183.3 203.02Z" fill="#989FB0"/>
<path d="M172.52 213.731H169.262C166.503 207.841 159.735 205.431 154.469 208.643C152.213 209.714 150.458 211.856 149.705 213.731H146.447C149.205 205.964 157.479 201.948 164.497 204.894C168.26 206.5 171.016 209.714 172.52 213.731Z" fill="#989FB0"/>
<path d="M267.541 272.105C264.784 272.105 265.786 272.373 244.475 249.612C223.917 265.947 195.336 250.148 195.336 223.371C195.336 205.43 209.124 190.702 225.922 190.702C250.243 190.702 265.284 219.889 250.994 242.113L270.801 263.268C274.06 266.483 272.054 272.105 267.541 272.105ZM226.173 201.146C214.639 201.146 205.113 211.053 205.113 223.639C205.113 236.223 214.39 246.132 226.173 246.132C227.426 246.132 228.681 246.132 229.934 245.864C231.188 245.596 232.441 245.328 233.445 244.791C234.698 244.256 235.7 243.722 236.703 243.186C237.956 242.381 238.96 241.58 239.962 240.508C240.715 239.706 241.719 238.633 242.469 237.83C243.222 236.76 243.975 235.687 244.475 234.618C244.977 233.545 245.479 232.207 245.981 230.867C246.481 229.529 246.732 228.191 246.732 226.851C246.732 225.781 246.983 224.977 246.983 223.907C247.234 211.053 237.705 201.146 226.173 201.146Z" fill="#989FB0"/>
<path fill-rule="evenodd" clip-rule="evenodd" d="M135.379 179.352L121.841 187.116L121.409 186.255L134.947 178.492L135.379 179.352Z" fill="#989FB0"/>
<path fill-rule="evenodd" clip-rule="evenodd" d="M181.768 174.476L195.308 182.511L194.863 183.365L181.324 175.329L181.768 174.476Z" fill="#989FB0"/>
<path d="M90.65 298H87.15L79.225 286.025V298H75.725V280.525H79.225L87.15 292.525V280.525H90.65V298ZM100.259 298.225C98.9255 298.225 97.7255 297.933 96.6588 297.35C95.5921 296.75 94.7505 295.908 94.1338 294.825C93.5338 293.742 93.2338 292.492 93.2338 291.075C93.2338 289.658 93.5421 288.408 94.1588 287.325C94.7921 286.242 95.6505 285.408 96.7338 284.825C97.8171 284.225 99.0255 283.925 100.359 283.925C101.692 283.925 102.9 284.225 103.984 284.825C105.067 285.408 105.917 286.242 106.534 287.325C107.167 288.408 107.484 289.658 107.484 291.075C107.484 292.492 107.159 293.742 106.509 294.825C105.875 295.908 105.009 296.75 103.909 297.35C102.825 297.933 101.609 298.225 100.259 298.225ZM100.259 295.175C100.892 295.175 101.484 295.025 102.034 294.725C102.6 294.408 103.05 293.942 103.384 293.325C103.717 292.708 103.884 291.958 103.884 291.075C103.884 289.758 103.534 288.75 102.834 288.05C102.15 287.333 101.309 286.975 100.309 286.975C99.3088 286.975 98.4671 287.333 97.7838 288.05C97.1171 288.75 96.7838 289.758 96.7838 291.075C96.7838 292.392 97.1088 293.408 97.7588 294.125C98.4255 294.825 99.2588 295.175 100.259 295.175ZM119.508 295.225H125.258V298H116.008V280.55H119.508V295.225ZM129.258 282.5C128.641 282.5 128.124 282.308 127.708 281.925C127.308 281.525 127.108 281.033 127.108 280.45C127.108 279.867 127.308 279.383 127.708 279C128.124 278.6 128.641 278.4 129.258 278.4C129.874 278.4 130.383 278.6 130.783 279C131.199 279.383 131.408 279.867 131.408 280.45C131.408 281.033 131.199 281.525 130.783 281.925C130.383 282.308 129.874 282.5 129.258 282.5ZM130.983 284.15V298H127.483V284.15H130.983ZM139.741 298.225C138.607 298.225 137.591 298.025 136.691 297.625C135.791 297.208 135.074 296.65 134.541 295.95C134.024 295.25 133.741 294.475 133.691 293.625H137.216C137.282 294.158 137.541 294.6 137.991 294.95C138.457 295.3 139.032 295.475 139.716 295.475C140.382 295.475 140.899 295.342 141.266 295.075C141.649 294.808 141.841 294.467 141.841 294.05C141.841 293.6 141.607 293.267 141.141 293.05C140.691 292.817 139.966 292.567 138.966 292.3C137.932 292.05 137.082 291.792 136.416 291.525C135.766 291.258 135.199 290.85 134.716 290.3C134.249 289.75 134.016 289.008 134.016 288.075C134.016 287.308 134.232 286.608 134.666 285.975C135.116 285.342 135.749 284.842 136.566 284.475C137.399 284.108 138.374 283.925 139.491 283.925C141.141 283.925 142.457 284.342 143.441 285.175C144.424 285.992 144.966 287.1 145.066 288.5H141.716C141.666 287.95 141.432 287.517 141.016 287.2C140.616 286.867 140.074 286.7 139.391 286.7C138.757 286.7 138.266 286.817 137.916 287.05C137.582 287.283 137.416 287.608 137.416 288.025C137.416 288.492 137.649 288.85 138.116 289.1C138.582 289.333 139.307 289.575 140.291 289.825C141.291 290.075 142.116 290.333 142.766 290.6C143.416 290.867 143.974 291.283 144.441 291.85C144.924 292.4 145.174 293.133 145.191 294.05C145.191 294.85 144.966 295.567 144.516 296.2C144.082 296.833 143.449 297.333 142.616 297.7C141.799 298.05 140.841 298.225 139.741 298.225ZM152.139 287.025V293.725C152.139 294.192 152.247 294.533 152.464 294.75C152.697 294.95 153.081 295.05 153.614 295.05H155.239V298H153.039C150.089 298 148.614 296.567 148.614 293.7V287.025H146.964V284.15H148.614V280.725H152.139V284.15H155.239V287.025H152.139ZM174.488 280.55V283.375H167.213V287.85H172.788V290.625H167.213V298H163.713V280.55H174.488ZM183.12 298.225C181.787 298.225 180.587 297.933 179.52 297.35C178.453 296.75 177.612 295.908 176.995 294.825C176.395 293.742 176.095 292.492 176.095 291.075C176.095 289.658 176.403 288.408 177.02 287.325C177.653 286.242 178.512 285.408 179.595 284.825C180.678 284.225 181.887 283.925 183.22 283.925C184.553 283.925 185.762 284.225 186.845 284.825C187.928 285.408 188.778 286.242 189.395 287.325C190.028 288.408 190.345 289.658 190.345 291.075C190.345 292.492 190.02 293.742 189.37 294.825C188.737 295.908 187.87 296.75 186.77 297.35C185.687 297.933 184.47 298.225 183.12 298.225ZM183.12 295.175C183.753 295.175 184.345 295.025 184.895 294.725C185.462 294.408 185.912 293.942 186.245 293.325C186.578 292.708 186.745 291.958 186.745 291.075C186.745 289.758 186.395 288.75 185.695 288.05C185.012 287.333 184.17 286.975 183.17 286.975C182.17 286.975 181.328 287.333 180.645 288.05C179.978 288.75 179.645 289.758 179.645 291.075C179.645 292.392 179.97 293.408 180.62 294.125C181.287 294.825 182.12 295.175 183.12 295.175ZM205.988 284.15V298H202.463V296.25C202.013 296.85 201.421 297.325 200.688 297.675C199.971 298.008 199.188 298.175 198.338 298.175C197.254 298.175 196.296 297.95 195.463 297.5C194.629 297.033 193.971 296.358 193.488 295.475C193.021 294.575 192.788 293.508 192.788 292.275V284.15H196.288V291.775C196.288 292.875 196.563 293.725 197.113 294.325C197.663 294.908 198.413 295.2 199.363 295.2C200.329 295.2 201.088 294.908 201.638 294.325C202.188 293.725 202.463 292.875 202.463 291.775V284.15H205.988ZM217.116 283.95C218.766 283.95 220.099 284.475 221.116 285.525C222.132 286.558 222.641 288.008 222.641 289.875V298H219.141V290.35C219.141 289.25 218.866 288.408 218.316 287.825C217.766 287.225 217.016 286.925 216.066 286.925C215.099 286.925 214.332 287.225 213.766 287.825C213.216 288.408 212.941 289.25 212.941 290.35V298H209.441V284.15H212.941V285.875C213.407 285.275 213.999 284.808 214.716 284.475C215.449 284.125 216.249 283.95 217.116 283.95ZM225.069 291.025C225.069 289.625 225.344 288.383 225.894 287.3C226.461 286.217 227.227 285.383 228.194 284.8C229.161 284.217 230.236 283.925 231.419 283.925C232.319 283.925 233.177 284.125 233.994 284.525C234.811 284.908 235.461 285.425 235.944 286.075V279.5H239.494V298H235.944V295.95C235.511 296.633 234.902 297.183 234.119 297.6C233.336 298.017 232.427 298.225 231.394 298.225C230.227 298.225 229.161 297.925 228.194 297.325C227.227 296.725 226.461 295.883 225.894 294.8C225.344 293.7 225.069 292.442 225.069 291.025ZM235.969 291.075C235.969 290.225 235.802 289.5 235.469 288.9C235.136 288.283 234.686 287.817 234.119 287.5C233.552 287.167 232.944 287 232.294 287C231.644 287 231.044 287.158 230.494 287.475C229.944 287.792 229.494 288.258 229.144 288.875C228.811 289.475 228.644 290.192 228.644 291.025C228.644 291.858 228.811 292.592 229.144 293.225C229.494 293.842 229.944 294.317 230.494 294.65C231.061 294.983 231.661 295.15 232.294 295.15C232.944 295.15 233.552 294.992 234.119 294.675C234.686 294.342 235.136 293.875 235.469 293.275C235.802 292.658 235.969 291.925 235.969 291.075Z" fill="#ABB5C7"/>
<defs>
<filter id="filter0_d_28_3" x="162.944" y="-3.84082" width="142.142" height="169.288" filterUnits="userSpaceOnUse" color-interpolation-filters="sRGB">
<feFlood flood-opacity="0" result="BackgroundImageFix"/>
<feColorMatrix in="SourceAlpha" type="matrix" values="0 0 0 0 0 0 0 0 0 0 0 0 0 0 0 0 0 0 127 0" result="hardAlpha"/>
<feOffset dy="11"/>
<feGaussianBlur stdDeviation="11"/>
<feColorMatrix type="matrix" values="0 0 0 0 0.397708 0 0 0 0 0.47749 0 0 0 0 0.575 0 0 0 0.27 0"/>
<feBlend mode="normal" in2="BackgroundImageFix" result="effect1_dropShadow_28_3"/>
<feBlend mode="normal" in="SourceGraphic" in2="effect1_dropShadow_28_3" result="shape"/>
</filter>
<filter id="filter1_d_28_3" x="-8.59375" y="26.5359" width="138.337" height="133.605" filterUnits="userSpaceOnUse" color-interpolation-filters="sRGB">
<feFlood flood-opacity="0" result="BackgroundImageFix"/>
<feColorMatrix in="SourceAlpha" type="matrix" values="0 0 0 0 0 0 0 0 0 0 0 0 0 0 0 0 0 0 127 0" result="hardAlpha"/>
<feOffset dy="11"/>
<feGaussianBlur stdDeviation="11"/>
<feColorMatrix type="matrix" values="0 0 0 0 0.397708 0 0 0 0 0.47749 0 0 0 0 0.575 0 0 0 0.27 0"/>
<feBlend mode="normal" in2="BackgroundImageFix" result="effect1_dropShadow_28_3"/>
<feBlend mode="normal" in="SourceGraphic" in2="effect1_dropShadow_28_3" result="shape"/>
</filter>
<filter id="filter2_d_28_3" x="73.3271" y="57.8962" width="116.932" height="140.338" filterUnits="userSpaceOnUse" color-interpolation-filters="sRGB">
<feFlood flood-opacity="0" result="BackgroundImageFix"/>
<feColorMatrix in="SourceAlpha" type="matrix" values="0 0 0 0 0 0 0 0 0 0 0 0 0 0 0 0 0 0 127 0" result="hardAlpha"/>
<feOffset dy="11"/>
<feGaussianBlur stdDeviation="11"/>
<feColorMatrix type="matrix" values="0 0 0 0 0.397708 0 0 0 0 0.47749 0 0 0 0 0.575 0 0 0 0.27 0"/>
<feBlend mode="normal" in2="BackgroundImageFix" result="effect1_dropShadow_28_3"/>
<feBlend mode="normal" in="SourceGraphic" in2="effect1_dropShadow_28_3" result="shape"/>
</filter>
<filter id="filter3_d_28_3" x="189.294" y="126.857" width="131.088" height="137.372" filterUnits="userSpaceOnUse" color-interpolation-filters="sRGB">
<feFlood flood-opacity="0" result="BackgroundImageFix"/>
<feColorMatrix in="SourceAlpha" type="matrix" values="0 0 0 0 0 0 0 0 0 0 0 0 0 0 0 0 0 0 127 0" result="hardAlpha"/>
<feOffset dy="11"/>
<feGaussianBlur stdDeviation="11"/>
<feColorMatrix type="matrix" values="0 0 0 0 0.397708 0 0 0 0 0.47749 0 0 0 0 0.575 0 0 0 0.27 0"/>
<feBlend mode="normal" in2="BackgroundImageFix" result="effect1_dropShadow_28_3"/>
<feBlend mode="normal" in="SourceGraphic" in2="effect1_dropShadow_28_3" result="shape"/>
</filter>
<filter id="filter4_d_28_3" x="45.7205" y="122.934" width="232.686" height="160.482" filterUnits="userSpaceOnUse" color-interpolation-filters="sRGB">
<feFlood flood-opacity="0" result="BackgroundImageFix"/>
<feColorMatrix in="SourceAlpha" type="matrix" values="0 0 0 0 0 0 0 0 0 0 0 0 0 0 0 0 0 0 127 0" result="hardAlpha"/>
<feOffset dy="11"/>
<feGaussianBlur stdDeviation="11"/>
<feColorMatrix type="matrix" values="0 0 0 0 0.397708 0 0 0 0 0.47749 0 0 0 0 0.575 0 0 0 0.27 0"/>
<feBlend mode="normal" in2="BackgroundImageFix" result="effect1_dropShadow_28_3"/>
<feBlend mode="normal" in="SourceGraphic" in2="effect1_dropShadow_28_3" result="shape"/>
</filter>
<linearGradient id="paint0_linear_28_3" x1="157.98" y1="122.517" x2="157.98" y2="164.322" gradientUnits="userSpaceOnUse">
<stop stop-color="#B0BACC"/>
<stop offset="1" stop-color="#969EAE"/>
</linearGradient>
<linearGradient id="paint1_linear_28_3" x1="162.001" y1="131.24" x2="162.001" y2="251.671" gradientUnits="userSpaceOnUse">
<stop stop-color="#FDFEFF"/>
<stop offset="0.9964" stop-color="#ECF0F5"/>
</linearGradient>
</defs>
</svg>
