<svg width="756" height="712" viewBox="0 0 756 712" fill="none" xmlns="http://www.w3.org/2000/svg">
<path d="M391.967 612.628C540.977 612.628 662.076 490.027 662.076 339.176C662.076 188.327 540.977 65.7248 391.967 65.7248C242.409 65.7248 121.863 187.766 121.863 339.176C121.863 490.027 242.409 612.628 391.967 612.628Z" fill="#EAEEF9"/>
<path d="M222.012 264.427H548.517C560.742 264.427 571.748 274.95 571.748 287.953V496.558C571.748 508.934 561.354 520.077 548.517 520.077H222.012C209.787 520.077 198.781 509.554 198.781 496.558V287.953C198.781 274.95 209.787 264.427 222.012 264.427Z" fill="url(#paint0_linear_1_3)"/>
<path d="M706.16 270.817C714.532 262.906 715.093 249.91 707.279 241.433C699.466 232.963 686.628 232.396 678.256 240.305C669.889 248.215 669.328 261.212 677.142 269.682C684.395 277.592 697.79 278.727 706.16 270.817Z" fill="#EAEEF9"/>
<path d="M707.275 177.592C710.623 174.203 711.184 168.555 707.836 165.164C704.485 161.772 698.907 161.205 695.559 164.596C692.208 167.988 691.647 173.636 694.998 177.025C698.346 180.983 703.931 180.983 707.275 177.592Z" fill="#EAEEF9"/>
<path d="M487.959 49.3439C490.188 47.0815 490.749 43.1294 488.515 40.867C486.286 38.6043 482.374 38.0432 480.145 40.2999C477.911 42.5624 477.358 46.5144 479.587 48.7769C481.821 51.0335 485.725 51.6006 487.959 49.3439Z" fill="#EAEEF9"/>
<g filter="url(#filter0_d_1_3)">
<path d="M690.365 154.242L609.046 300.947C605.985 305.899 599.876 307.76 595.591 304.662L456.19 222.334C451.293 219.242 449.464 213.051 452.517 208.718L559.516 21.7789C562.576 16.8271 568.692 14.9681 572.972 18.0608L673.855 77.4878L690.365 154.242Z" fill="#F2F6FA"/>
</g>
<path d="M673.857 77.4875L650.626 117.102C647.565 123.293 649.402 129.484 654.903 133.196L689.755 153.623" fill="#D5DAE6"/>
<path d="M577.864 115.868C580.308 115.248 582.757 115.249 584.593 115.249C587.034 115.249 589.485 115.249 591.926 115.249C594.375 115.868 597.43 116.482 599.879 117.101C602.932 118.341 605.38 119.58 607.824 120.82C611.492 122.673 614.552 125.152 616.994 128.244C619.442 130.723 621.278 133.816 622.498 137.528C623.722 140.627 623.722 144.339 623.722 147.432C623.11 151.15 621.886 154.862 620.054 157.955C618.218 161.053 616.381 163.527 613.938 166.004C611.492 167.864 609.66 169.098 606.6 170.337C604.159 171.577 601.708 172.197 599.264 172.197L592.538 172.817C590.702 172.817 588.873 173.431 586.422 174.049C584.593 174.669 583.369 175.289 582.144 176.528L575.416 185.193L564.415 179.002L569.307 167.864C569.914 166.006 571.748 164.146 572.972 162.913C574.811 161.673 576.64 161.053 578.477 160.435C580.92 159.815 582.757 159.813 585.205 159.195C587.646 159.195 590.097 158.575 592.538 157.955C594.987 157.341 596.818 156.722 599.264 155.482C601.708 154.242 602.932 152.389 604.159 149.91C604.771 148.671 605.38 146.818 605.988 144.959C605.988 143.1 605.988 141.866 605.38 140.627C604.771 138.768 604.159 137.528 602.932 136.295C601.708 135.055 600.491 133.816 598.652 132.577C596.818 131.343 594.375 130.104 591.926 129.484C590.097 128.864 588.258 128.864 586.422 128.864C584.593 128.864 583.369 128.864 582.144 128.864C581.532 128.864 580.308 128.864 579.701 128.244C578.477 127.625 577.252 125.771 577.252 124.532L577.864 115.868ZM546.681 197.575C547.293 196.335 548.519 195.096 549.736 193.862C550.961 193.244 552.185 192.004 553.409 192.004C556.465 191.384 559.525 191.384 561.967 193.244C563.193 193.863 564.415 195.096 565.634 196.335C566.246 197.575 566.859 198.815 567.471 200.048C569.307 206.239 565.634 211.811 559.525 213.67C556.465 214.289 553.409 213.67 550.961 212.431C549.736 211.811 548.519 210.571 547.293 209.337C546.681 208.099 545.456 206.859 545.456 205.62C544.844 204.386 544.844 202.526 545.456 201.287C545.456 200.048 546.069 198.815 546.681 197.575Z" fill="#CED6E2"/>
<g filter="url(#filter1_d_1_3)">
<path d="M167.598 90.4894L260.535 188.911C263.59 192.624 263.59 197.575 259.923 200.668L165.151 291.663C161.483 294.756 156.592 294.756 153.531 291.044L34.9138 164.147C31.8588 160.433 31.8588 155.482 35.5259 152.389L104.62 86.7713L167.598 90.4894Z" fill="#F2F6FA"/>
</g>
<path d="M104.006 85.5322L129.686 112.77C133.353 116.482 139.468 116.482 143.141 112.77L166.984 89.8701" fill="#D5DAE6"/>
<path d="M111.346 170.337C111.346 168.484 111.958 166.624 112.564 164.766C113.176 162.913 113.788 161.053 114.401 159.195C115.013 157.341 116.237 155.482 117.456 153.622C118.68 151.77 120.516 149.911 122.347 148.057C124.795 145.579 127.244 143.72 130.298 142.486C132.741 141.246 135.801 140.627 138.244 140.627C140.693 140.627 143.747 141.246 146.196 141.866C148.639 143.1 151.086 144.959 153.529 146.818C155.366 148.671 157.203 151.15 157.814 153.622C158.42 155.482 159.033 157.961 159.645 160.435C159.645 162.293 159.645 164.766 159.645 166.624C159.033 168.484 159.033 170.337 158.42 172.197C158.42 174.055 157.814 175.289 157.814 177.148C157.814 178.388 157.814 179.622 159.033 180.86L163.925 188.291L156.591 195.102L149.251 188.291C148.032 187.051 146.808 185.813 146.196 183.959C145.584 182.1 145.584 180.861 145.584 179.008C145.584 177.148 146.196 175.289 146.196 173.437C146.808 171.577 146.808 169.717 146.808 167.864C146.808 166.006 146.808 164.146 146.196 162.293C145.584 160.433 144.359 158.581 143.135 156.722C142.529 155.482 141.305 154.862 140.081 154.242C138.856 153.622 137.638 153.622 136.414 153.622C135.189 153.622 133.965 154.242 132.741 154.862C131.523 155.482 130.298 156.102 129.074 157.341C127.85 158.58 126.631 160.433 125.407 161.673C124.795 162.913 124.183 164.146 123.571 166.004C122.959 167.244 122.959 168.484 122.959 169.098C122.959 169.717 122.352 170.337 121.74 170.957C121.128 172.197 119.292 172.197 118.068 171.577L111.346 170.337ZM167.597 213.67C166.985 213.05 166.372 211.811 165.76 210.577C165.148 209.337 165.148 208.098 165.148 206.859C165.148 204.386 166.372 201.907 168.209 200.054C168.816 199.435 170.04 198.815 171.263 198.195C172.487 197.575 173.712 197.575 174.931 197.575C178.603 197.575 182.271 200.054 183.495 203.766C184.101 205.006 184.101 206.239 184.101 207.479C184.101 208.717 183.495 209.957 183.495 211.191C182.883 212.431 182.271 213.05 181.046 214.29C180.434 214.908 179.209 216.142 177.991 216.142C175.543 216.762 173.1 216.762 171.263 216.142C169.428 215.528 168.209 214.908 167.597 213.67Z" fill="#CED6E2"/>
<g filter="url(#filter2_d_1_3)">
<path d="M410.335 245.24L374.261 375.85C373.037 380.183 368.145 383.276 363.868 381.422L238.523 344.282C234.243 343.041 231.183 338.089 233.018 333.757L281.929 165.386C283.154 161.053 288.046 157.961 292.326 159.815L383.431 187.053L410.335 245.24Z" fill="#F2F6FA"/>
</g>
<path d="M383.443 187.28L371.813 224.193C370.591 229.144 373.649 234.717 378.541 235.954L410.788 245.18" fill="#D5DAE6"/>
<path d="M314.338 237.188C316.174 236.576 318.01 235.954 319.842 235.334C321.676 234.715 323.507 234.098 325.956 234.098C328.404 234.098 330.233 234.098 332.684 234.098C335.127 234.098 337.574 234.715 340.017 235.334C343.078 235.954 346.133 237.808 348.579 239.669C351.023 241.527 352.859 243.379 354.691 245.86C355.913 248.333 357.139 250.811 357.751 253.285C358.364 256.382 357.751 259.475 357.139 261.954C356.527 264.427 355.303 266.905 353.471 269.379C352.247 271.237 350.411 273.096 348.579 274.33C346.746 275.569 344.907 276.808 343.078 277.428L337.574 279.282C336.349 279.902 334.513 280.521 333.296 281.141C332.072 281.76 330.848 282.999 330.848 284.234L327.18 292.283L317.398 287.953L319.227 278.048C319.227 276.189 320.454 274.95 321.676 273.711C322.9 272.476 324.119 271.237 325.956 270.618C327.792 269.998 329.621 269.379 330.848 268.759C332.684 268.14 334.513 267.525 336.349 266.286C338.186 265.666 339.405 264.427 341.241 263.188C342.466 261.954 343.69 260.095 344.295 257.615C344.295 257.002 344.295 255.763 344.295 254.524C344.295 253.285 343.69 252.05 343.078 250.811C342.466 249.57 341.241 248.95 340.017 247.714C338.793 247.099 337.574 246.479 335.737 245.86C333.901 245.24 332.072 245.24 329.621 245.24C328.399 245.24 326.568 245.24 325.343 245.86C324.119 245.86 322.9 246.479 322.288 246.479C321.676 246.479 321.066 247.099 319.842 246.479C318.615 246.479 317.398 245.24 317.398 243.999L314.338 237.188ZM305.168 308.379C305.78 307.14 305.78 305.899 307.004 305.279C307.614 304.047 308.833 303.425 309.445 302.808C311.894 301.569 314.337 301.569 316.174 302.189C317.398 302.808 318.615 303.425 319.227 304.047C319.842 304.66 321.066 305.899 321.676 306.518C324.119 310.85 322.288 316.424 318.01 318.282C315.562 319.522 313.113 319.522 311.282 318.902C310.058 318.282 308.833 318.282 308.221 317.043C307.004 316.424 306.392 315.185 305.78 314.57C305.168 313.331 305.168 312.711 304.553 311.47C305.168 310.85 305.168 309.618 305.168 308.379Z" fill="#CED6E2"/>
<g filter="url(#filter3_d_1_3)">
<path d="M705.041 468.699L586.424 533.693C582.757 535.551 577.252 534.312 575.416 529.98L516.111 412.99C514.275 409.273 515.499 403.702 519.777 401.848L673.857 319.515C677.53 317.663 683.034 318.902 684.863 323.234L727.667 408.034L705.041 468.699Z" fill="#F2F6FA"/>
</g>
<path d="M727.055 409.273L694.035 426.608C689.757 429.086 687.926 435.27 689.757 439.609L704.429 469.319" fill="#D5DAE6"/>
<path d="M645.119 393.179C646.958 393.798 648.175 395.037 650.011 395.657C651.848 396.277 653.067 397.516 654.903 399.37C656.74 401.228 657.957 402.467 659.181 404.321C661.017 406.18 662.244 408.038 663.461 410.512C665.297 412.992 665.909 416.703 665.909 419.176C666.521 422.274 665.909 424.747 665.909 427.845C665.297 430.318 664.073 432.799 662.849 435.27C661.017 437.751 658.569 439.609 656.127 440.844C654.291 442.083 651.235 442.702 648.787 443.322C646.958 443.941 643.895 443.941 642.061 443.322C640.23 442.702 637.781 442.702 635.95 441.461L631.058 438.99C629.836 438.37 627.999 437.751 626.775 437.131C625.556 436.511 623.719 436.511 623.107 437.751L615.162 440.844L610.882 431.56L618.827 425.989C620.052 424.747 621.883 424.747 623.719 424.747C625.556 424.747 626.775 424.747 628.612 425.367C630.445 425.989 631.665 427.225 632.889 427.845C634.725 428.467 635.952 429.699 638.393 430.318C640.23 430.938 641.454 430.938 643.895 431.56C645.731 431.56 647.563 430.94 650.011 429.699C651.848 428.467 654.291 426.608 654.291 423.515C654.903 422.274 654.291 421.037 654.291 419.176C653.679 417.944 653.679 416.703 652.455 414.844C651.848 412.992 650.623 411.753 649.399 409.892C648.787 409.273 647.563 408.038 646.343 407.419C645.731 406.799 644.507 406.18 643.895 405.56C643.285 404.941 642.673 404.941 642.061 403.702C641.454 403.087 641.454 401.228 642.061 400.609L645.119 393.179ZM588.258 435.89C589.482 435.27 590.092 434.653 591.924 435.27C593.148 434.653 594.372 435.27 594.984 435.27C597.428 435.89 599.264 437.751 599.876 439.609C600.488 440.844 600.488 442.083 600.488 443.322C600.488 443.941 600.488 445.795 600.488 446.415C599.876 448.273 598.04 450.747 596.204 451.366C594.984 451.986 593.76 451.986 592.536 451.986C591.924 451.986 590.092 451.986 589.48 451.986C587.034 451.366 585.203 449.512 584.59 447.654C583.978 446.415 583.978 445.176 583.978 443.941C583.366 442.702 583.978 441.463 583.978 440.844C584.59 439.609 585.203 438.99 585.203 437.751C585.81 437.131 587.646 437.131 588.258 435.89Z" fill="#CED6E2"/>
<path fill-rule="evenodd" clip-rule="evenodd" d="M194.502 387.83C195.735 387.83 196.732 388.84 196.732 390.086V501.505C196.732 513.26 206.736 523.392 218.347 523.392H554.021C565.627 523.392 575.635 513.26 575.635 501.505V398.75C575.635 397.504 576.633 396.494 577.864 396.494C579.096 396.494 580.096 397.504 580.096 398.75V501.505C580.096 515.752 568.09 527.904 554.021 527.904H218.347C204.272 527.904 192.273 515.752 192.273 501.505V390.086C192.273 388.84 193.272 387.83 194.502 387.83Z" fill="#1676EE"/>
<path d="M565.022 332.518H450.076C439.07 332.518 428.064 336.23 419.507 343.66L388.935 368.418C380.373 375.231 369.365 379.563 358.364 379.563H227.516C214.679 379.563 203.673 390.086 203.673 403.702C203.673 404.941 203.673 406.18 204.285 407.419L228.128 534.312C229.965 546.074 240.359 555.36 251.972 555.36H531.395C543.627 555.36 553.409 546.693 555.241 534.932L588.87 360.374C590.702 347.373 582.144 334.991 568.695 333.137C567.471 332.518 566.246 332.518 565.022 332.518Z" fill="white"/>
<g filter="url(#filter4_d_1_3)">
<path d="M596.818 309.614H459.86C447.018 309.614 433.568 314.57 423.787 322.615L387.099 352.944C376.705 361.615 363.868 365.945 351.025 365.945H193.892C178.605 365.945 165.151 378.324 165.151 395.037C165.151 396.277 165.151 398.131 165.763 399.37L194.502 553.506C196.945 567.741 208.564 578.884 223.237 578.884H556.465C570.526 578.884 582.757 568.361 585.205 554.126L624.946 343.041C627.39 327.566 616.994 312.092 601.103 309.614C599.879 309.614 598.042 309.614 596.818 309.614Z" fill="url(#paint1_linear_1_3)"/>
</g>
<path d="M332.684 471.792C340.629 471.792 347.358 464.987 347.358 456.938C347.358 448.893 340.629 442.083 332.684 442.083C324.731 442.083 318.003 448.893 318.003 456.938C318.003 464.987 324.731 471.792 332.684 471.792Z" fill="#989FB0"/>
<path d="M447.015 469.319C454.966 469.319 461.694 462.509 461.694 454.464C461.694 446.415 454.966 439.609 447.015 439.609C439.07 439.609 432.342 446.415 432.342 454.464C432.342 462.509 439.07 469.319 447.015 469.319Z" fill="#989FB0"/>
<path d="M420.726 494.079H412.781C406.052 480.464 389.547 474.892 376.705 482.318C371.203 484.793 366.923 489.745 365.087 494.079H357.142C363.868 476.125 384.046 466.841 401.16 473.651C410.337 477.364 417.058 484.793 420.726 494.079Z" fill="#989FB0"/>
<path d="M652.455 629.022C645.731 629.022 648.175 629.641 596.204 577.025C546.069 614.787 476.368 578.264 476.368 516.364C476.368 474.89 509.993 440.844 550.958 440.844C610.27 440.844 646.951 508.315 612.102 559.69L660.405 608.594C668.353 616.026 663.461 629.022 652.455 629.022ZM551.57 464.987C523.442 464.987 500.211 487.889 500.211 516.984C500.211 546.074 522.835 568.98 551.57 568.98C554.626 568.98 557.687 568.98 560.742 568.361C563.8 567.741 566.856 567.122 569.305 565.88C572.36 564.644 574.804 563.409 577.25 562.17C580.306 560.309 582.754 558.458 585.198 555.98C587.034 554.126 589.482 551.645 591.311 549.789C593.148 547.315 594.984 544.835 596.204 542.364C597.428 539.883 598.652 536.79 599.876 533.693C601.096 530.6 601.708 527.506 601.708 524.409C601.708 521.935 602.32 520.077 602.32 517.603C602.932 487.889 579.694 464.987 551.57 464.987Z" fill="#989FB0"/>
<path fill-rule="evenodd" clip-rule="evenodd" d="M330.15 414.606L297.135 432.554L296.081 430.564L329.097 412.618L330.15 414.606Z" fill="#989FB0"/>
<path fill-rule="evenodd" clip-rule="evenodd" d="M443.279 403.334L476.3 421.909L475.214 423.883L442.197 405.306L443.279 403.334Z" fill="#989FB0"/>
<path d="M273.277 644.545V686H265.706L247.671 659.909H247.368V686H238.603V644.545H246.295L264.188 670.616H264.553V644.545H273.277ZM294.404 686.607C291.259 686.607 288.54 685.939 286.246 684.603C283.966 683.254 282.205 681.378 280.963 678.976C279.722 676.561 279.101 673.761 279.101 670.576C279.101 667.364 279.722 664.558 280.963 662.156C282.205 659.74 283.966 657.864 286.246 656.528C288.54 655.179 291.259 654.504 294.404 654.504C297.548 654.504 300.26 655.179 302.541 656.528C304.835 657.864 306.603 659.74 307.844 662.156C309.085 664.558 309.706 667.364 309.706 670.576C309.706 673.761 309.085 676.561 307.844 678.976C306.603 681.378 304.835 683.254 302.541 684.603C300.26 685.939 297.548 686.607 294.404 686.607ZM294.444 679.928C295.875 679.928 297.069 679.523 298.027 678.713C298.985 677.89 299.707 676.77 300.193 675.353C300.692 673.936 300.942 672.324 300.942 670.515C300.942 668.707 300.692 667.094 300.193 665.678C299.707 664.261 298.985 663.141 298.027 662.317C297.069 661.494 295.875 661.083 294.444 661.083C293 661.083 291.786 661.494 290.801 662.317C289.829 663.141 289.094 664.261 288.594 665.678C288.109 667.094 287.866 668.707 287.866 670.515C287.866 672.324 288.109 673.936 288.594 675.353C289.094 676.77 289.829 677.89 290.801 678.713C291.786 679.523 293 679.928 294.444 679.928ZM331.85 654.909V661.386H313.127V654.909H331.85ZM317.378 647.46H326.001V676.446C326.001 677.242 326.122 677.863 326.365 678.308C326.608 678.74 326.945 679.044 327.377 679.219C327.822 679.395 328.335 679.482 328.915 679.482C329.32 679.482 329.725 679.449 330.13 679.381C330.535 679.3 330.845 679.239 331.061 679.199L332.417 685.615C331.985 685.75 331.378 685.906 330.595 686.081C329.813 686.27 328.861 686.385 327.741 686.425C325.663 686.506 323.842 686.229 322.276 685.595C320.724 684.961 319.517 683.976 318.653 682.64C317.789 681.304 317.364 679.617 317.378 677.58V647.46ZM350.822 686V644.545H378.269V651.772H359.586V661.65H376.447V668.876H359.586V686H350.822ZM395.768 686.607C392.624 686.607 389.905 685.939 387.611 684.603C385.33 683.254 383.569 681.378 382.328 678.976C381.086 676.561 380.465 673.761 380.465 670.576C380.465 667.364 381.086 664.558 382.328 662.156C383.569 659.74 385.33 657.864 387.611 656.528C389.905 655.179 392.624 654.504 395.768 654.504C398.912 654.504 401.624 655.179 403.905 656.528C406.199 657.864 407.967 659.74 409.208 662.156C410.45 664.558 411.07 667.364 411.07 670.576C411.07 673.761 410.45 676.561 409.208 678.976C407.967 681.378 406.199 683.254 403.905 684.603C401.624 685.939 398.912 686.607 395.768 686.607ZM395.808 679.928C397.239 679.928 398.433 679.523 399.391 678.713C400.349 677.89 401.071 676.77 401.557 675.353C402.056 673.936 402.306 672.324 402.306 670.515C402.306 668.707 402.056 667.094 401.557 665.678C401.071 664.261 400.349 663.141 399.391 662.317C398.433 661.494 397.239 661.083 395.808 661.083C394.365 661.083 393.15 661.494 392.165 662.317C391.193 663.141 390.458 664.261 389.959 665.678C389.473 667.094 389.23 668.707 389.23 670.515C389.23 672.324 389.473 673.936 389.959 675.353C390.458 676.77 391.193 677.89 392.165 678.713C393.15 679.523 394.365 679.928 395.808 679.928ZM436.615 672.762V654.909H445.238V686H436.959V680.353H436.635C435.934 682.174 434.767 683.638 433.134 684.745C431.514 685.852 429.537 686.405 427.203 686.405C425.125 686.405 423.296 685.933 421.718 684.988C420.139 684.043 418.904 682.701 418.013 680.96C417.136 679.219 416.691 677.134 416.677 674.705V654.909H425.3V673.167C425.314 675.002 425.806 676.453 426.778 677.519C427.749 678.585 429.052 679.118 430.684 679.118C431.724 679.118 432.695 678.882 433.599 678.409C434.503 677.924 435.232 677.208 435.785 676.264C436.352 675.319 436.629 674.152 436.615 672.762ZM460.758 668.026V686H452.135V654.909H460.353V660.395H460.718C461.406 658.586 462.56 657.156 464.179 656.103C465.798 655.037 467.762 654.504 470.069 654.504C472.228 654.504 474.111 654.977 475.717 655.921C477.323 656.866 478.571 658.215 479.461 659.969C480.352 661.71 480.797 663.788 480.797 666.204V686H472.174V667.742C472.188 665.839 471.702 664.355 470.717 663.289C469.732 662.21 468.376 661.67 466.649 661.67C465.488 661.67 464.462 661.919 463.572 662.419C462.695 662.918 462.006 663.647 461.507 664.605C461.021 665.549 460.772 666.69 460.758 668.026ZM499.05 686.506C496.689 686.506 494.55 685.899 492.634 684.684C490.731 683.456 489.219 681.655 488.099 679.28C486.993 676.891 486.44 673.963 486.44 670.495C486.44 666.933 487.013 663.971 488.16 661.609C489.307 659.234 490.832 657.46 492.735 656.286C494.651 655.098 496.749 654.504 499.03 654.504C500.771 654.504 502.221 654.801 503.382 655.395C504.556 655.975 505.5 656.704 506.216 657.581C506.944 658.445 507.498 659.295 507.875 660.131H508.138V644.545H516.741V686H508.24V681.021H507.875C507.471 681.884 506.897 682.741 506.155 683.591C505.426 684.428 504.475 685.123 503.301 685.676C502.14 686.229 500.723 686.506 499.05 686.506ZM501.783 679.644C503.173 679.644 504.347 679.266 505.305 678.511C506.276 677.741 507.018 676.669 507.531 675.292C508.058 673.916 508.321 672.303 508.321 670.455C508.321 668.606 508.064 667 507.551 665.637C507.039 664.274 506.297 663.222 505.325 662.479C504.353 661.737 503.173 661.366 501.783 661.366C500.366 661.366 499.172 661.751 498.2 662.52C497.228 663.289 496.493 664.355 495.994 665.718C495.494 667.081 495.245 668.66 495.245 670.455C495.245 672.263 495.494 673.862 495.994 675.252C496.506 676.628 497.242 677.708 498.2 678.49C499.172 679.26 500.366 679.644 501.783 679.644Z" fill="#989FB0"/>
<defs>
<filter id="filter0_d_1_3" x="429.024" y="5.5498" width="283.34" height="333.626" filterUnits="userSpaceOnUse" color-interpolation-filters="sRGB">
<feFlood flood-opacity="0" result="BackgroundImageFix"/>
<feColorMatrix in="SourceAlpha" type="matrix" values="0 0 0 0 0 0 0 0 0 0 0 0 0 0 0 0 0 0 127 0" result="hardAlpha"/>
<feOffset dy="11"/>
<feGaussianBlur stdDeviation="11"/>
<feColorMatrix type="matrix" values="0 0 0 0 0.397708 0 0 0 0 0.47749 0 0 0 0 0.575 0 0 0 0.27 0"/>
<feBlend mode="normal" in2="BackgroundImageFix" result="effect1_dropShadow_1_3"/>
<feBlend mode="normal" in="SourceGraphic" in2="effect1_dropShadow_1_3" result="shape"/>
</filter>
<filter id="filter1_d_1_3" x="10.6938" y="75.7713" width="274.061" height="251.14" filterUnits="userSpaceOnUse" color-interpolation-filters="sRGB">
<feFlood flood-opacity="0" result="BackgroundImageFix"/>
<feColorMatrix in="SourceAlpha" type="matrix" values="0 0 0 0 0 0 0 0 0 0 0 0 0 0 0 0 0 0 127 0" result="hardAlpha"/>
<feOffset dy="11"/>
<feGaussianBlur stdDeviation="11"/>
<feColorMatrix type="matrix" values="0 0 0 0 0.397708 0 0 0 0 0.47749 0 0 0 0 0.575 0 0 0 0.27 0"/>
<feBlend mode="normal" in2="BackgroundImageFix" result="effect1_dropShadow_1_3"/>
<feBlend mode="normal" in="SourceGraphic" in2="effect1_dropShadow_1_3" result="shape"/>
</filter>
<filter id="filter2_d_1_3" x="210.475" y="148.267" width="221.86" height="266.704" filterUnits="userSpaceOnUse" color-interpolation-filters="sRGB">
<feFlood flood-opacity="0" result="BackgroundImageFix"/>
<feColorMatrix in="SourceAlpha" type="matrix" values="0 0 0 0 0 0 0 0 0 0 0 0 0 0 0 0 0 0 127 0" result="hardAlpha"/>
<feOffset dy="11"/>
<feGaussianBlur stdDeviation="11"/>
<feColorMatrix type="matrix" values="0 0 0 0 0.397708 0 0 0 0 0.47749 0 0 0 0 0.575 0 0 0 0.27 0"/>
<feBlend mode="normal" in2="BackgroundImageFix" result="effect1_dropShadow_1_3"/>
<feBlend mode="normal" in="SourceGraphic" in2="effect1_dropShadow_1_3" result="shape"/>
</filter>
<filter id="filter3_d_1_3" x="493.285" y="307.683" width="256.382" height="259.846" filterUnits="userSpaceOnUse" color-interpolation-filters="sRGB">
<feFlood flood-opacity="0" result="BackgroundImageFix"/>
<feColorMatrix in="SourceAlpha" type="matrix" values="0 0 0 0 0 0 0 0 0 0 0 0 0 0 0 0 0 0 127 0" result="hardAlpha"/>
<feOffset dy="11"/>
<feGaussianBlur stdDeviation="11"/>
<feColorMatrix type="matrix" values="0 0 0 0 0.397708 0 0 0 0 0.47749 0 0 0 0 0.575 0 0 0 0.27 0"/>
<feBlend mode="normal" in2="BackgroundImageFix" result="effect1_dropShadow_1_3"/>
<feBlend mode="normal" in="SourceGraphic" in2="effect1_dropShadow_1_3" result="shape"/>
</filter>
<filter id="filter4_d_1_3" x="143.151" y="298.614" width="504.151" height="313.27" filterUnits="userSpaceOnUse" color-interpolation-filters="sRGB">
<feFlood flood-opacity="0" result="BackgroundImageFix"/>
<feColorMatrix in="SourceAlpha" type="matrix" values="0 0 0 0 0 0 0 0 0 0 0 0 0 0 0 0 0 0 127 0" result="hardAlpha"/>
<feOffset dy="11"/>
<feGaussianBlur stdDeviation="11"/>
<feColorMatrix type="matrix" values="0 0 0 0 0.397708 0 0 0 0 0.47749 0 0 0 0 0.575 0 0 0 0.27 0"/>
<feBlend mode="normal" in2="BackgroundImageFix" result="effect1_dropShadow_1_3"/>
<feBlend mode="normal" in="SourceGraphic" in2="effect1_dropShadow_1_3" result="shape"/>
</filter>
<linearGradient id="paint0_linear_1_3" x1="385.267" y1="283.221" x2="385.267" y2="379.861" gradientUnits="userSpaceOnUse">
<stop stop-color="#B0BACC"/>
<stop offset="1" stop-color="#969EAE"/>
</linearGradient>
<linearGradient id="paint1_linear_1_3" x1="395.073" y1="303.386" x2="395.073" y2="581.785" gradientUnits="userSpaceOnUse">
<stop stop-color="#FDFEFF"/>
<stop offset="0.9964" stop-color="#ECF0F5"/>
</linearGradient>
</defs>
</svg>
